<?xml version="1.0" standalone="yes"?>
<svg xmlns="http://www.w3.org/2000/svg" width="612" height="486">
<path style="fill:#020202; stroke:none;" d="M510 25C512.736 36.41 518.884 36.2077 529 36C526.878 41.8404 521.355 48.6057 530 51C529.374 55.0918 532.618 67.4706 536.317 69.9761C542.989 74.4954 550.21 69.4195 552.187 80C552.494 81.646 552.781 83.3525 552.311 85C549.091 96.2946 534.751 102.316 530.089 113C523.292 128.576 524.822 147.018 519.532 163C517.124 170.274 510.408 175.172 506.992 182C500.364 195.247 497.158 209.958 492.794 224C490.98 229.837 487.346 236.448 482.675 240.501C477.474 245.014 470.162 244.991 471.644 253.955C471.868 255.311 472.539 256.724 473 258C469.157 255.778 468.367 251.994 466.797 248C464.311 241.675 461.807 235.365 459.424 229C458.444 226.381 457.786 222.487 455.49 220.647C453.069 218.708 450.255 220.381 448 221.701C442.95 224.656 431.449 229.608 430.422 236.015C429.801 239.893 432.606 244.514 434 248C437.332 256.332 440.755 264.634 444 273C428.081 277.682 412.853 289.303 398 296.753C391.933 299.796 385.98 305.23 379 303C373.164 312.1 364.898 313.538 355 315.884C343.355 318.644 331.644 321.124 320 323.884C267.175 336.404 213.252 346.282 161 361C160.241 357.459 157.306 357.773 154 357.222C147.355 356.115 140.632 355.701 134 354.611C125.405 353.199 116.716 353 108 353C104.235 353 99.6521 352.3 96 353.306C92.2865 354.328 89.0659 357.411 86 359.611C83.0357 361.738 79.6521 363.616 77.9444 367C75.6345 371.577 77 378.977 77 384L81 384C79.0149 387.903 74.0473 390.075 72.6219 394.104C70.8374 399.148 75.9849 401.674 77.5872 405.665C79.6208 410.731 74.9303 416.946 82.8441 417.941C83.8299 418.065 85.0375 417.989 86 418L86 423C79.0476 423 68.5895 424.969 62.0895 422.397C58.7776 421.086 56.6411 417.567 53.9853 415.329C49.0295 411.151 42.4998 408.354 36 408.04C29.6031 407.731 23.6668 408.709 18 411.8C13.2228 414.406 9.05902 418.412 6.13272 423C-3.20999 437.647 0.916108 458.31 15 468.362C29.0792 478.411 51.8103 474.777 60 459C73.7595 463.351 89.6961 463.786 104 465.17C126.226 467.321 148.687 468.439 171 468.985C180.09 469.208 190.091 466.777 199 468.148C205.559 469.157 211.084 476.064 217 479.029C230.129 485.61 245.05 486.469 259 482.279C265.209 480.413 270.878 477.287 276 473.32C308.901 447.844 299.997 394.972 262 380C272.091 373.345 283.784 366.996 295 362.453C302.984 359.219 311.327 357.153 319 353.111C338.731 342.719 355.337 327.904 376 319L376 323L380 323C380.41 320.225 381.149 317.673 382 315L389 318C387.681 320.832 385.075 332.112 392.488 327.727C398.606 324.107 396.433 314.387 392 311L390 314L389 311C398.495 308.265 407.338 301.993 416 297.309C430.28 289.585 444.854 282.398 459 274.424C466.459 270.22 478.874 260.097 486 268C491.556 265.292 494.872 259.485 499 255C499.884 260.039 503.359 259.338 507 256.603C512.143 252.738 517.636 248.726 522 244C517.827 251.932 511.81 259.619 508.711 268C503.597 281.83 502.609 297.709 498.844 312C495.343 325.289 489.882 338.028 489.21 352C488.977 356.835 491.951 360.435 492.497 365C492.786 367.415 491.65 369.636 491.417 372C491.046 375.78 491.803 380.208 492.17 384C492.906 391.609 493.345 399.453 494.428 407C494.978 410.827 496.826 415.154 496.587 419C496.154 425.962 488.114 430.487 487.666 437.985C487.42 442.101 492.177 443.983 491.712 448.015C490.751 456.353 477.402 464.373 470 465.826C464.194 466.966 454.601 466.229 456.549 474.981C457.881 480.971 463.16 479.827 468 480.039C473.372 480.275 478.59 481 484 481L561 481C567 481 573.001 481.041 579 480.999C581.725 480.98 585.101 481.261 586.821 478.682C588.492 476.176 587.594 473.055 588.086 470.285C588.895 465.73 592.259 463.018 591.541 458C591.042 454.517 587.469 450.417 588.337 447C589.194 443.626 592.615 441.464 593.566 438C595.939 429.363 595.465 418.916 596.089 410C597.266 393.219 596.079 376.73 596.079 360C596.079 356.637 597.06 353.375 596.895 350C596.595 343.848 593.256 338.125 593.183 332C593.043 320.288 595.109 308.631 595.911 297C596.427 289.507 595.916 281.376 597.264 274C598.604 266.663 605.324 262.941 605.91 255C606.975 240.56 602.083 226.283 600.907 212C600.636 208.714 598.547 205.262 598.942 202C599.602 196.558 604.498 191.751 605.535 186C606.668 179.725 605.823 173.258 606.654 167C609.361 146.636 613.948 125.481 609.335 105C607.474 96.7385 602.849 89.0342 596.985 83C592.204 78.0804 585.407 73.513 582.699 67C579.423 59.1206 581.008 49.7874 583.696 42C585.347 37.2173 588.036 32.2134 587.442 27C586.893 22.1866 584.47 16.7994 581.468 13.0394C571.542 0.608765 553.561 -2.99097 540 5.55942C534.669 8.92056 531.784 14.4988 526.816 18.0054C522.008 21.3989 515.359 22.6134 510 25M525 213C523.248 220.638 518.671 226.155 511 228C514.806 222.597 519.856 217.148 525 213M454 221C457.75 229.46 460.578 238.392 464 247C465.272 250.201 468.247 255.243 467.212 258.787C466.434 261.455 463.206 262.596 460.999 263.78C455.773 266.585 450.915 269.946 445 271C442.678 262.509 438.847 254.187 435.601 246C434.409 242.992 431.8 238.461 433.212 235.184C434.23 232.823 436.969 231.363 439.001 230.004C443.813 226.784 448.768 223.475 454 221M360 317C354.53 321.532 347.28 324.465 341 327.781C330.653 333.244 320.393 338.881 310 344.258C294.046 352.513 278.513 362.591 262 369.663C251.356 374.221 240.006 375.021 229 377.924C222.765 379.569 217.221 383.155 211 384.75C199.682 387.652 186.634 388 175 388C175.008 377.874 179.346 366.095 165 364C168.11 359.897 175.197 359.636 180 358.576C192.361 355.845 204.625 352.651 217 350C264.82 339.755 312.11 326.885 360 317M550 320C549.983 326.031 548.679 331.966 549.089 338C549.557 344.866 551.814 351.328 552.517 358C552.948 362.091 550.334 365.841 551.322 370C552.643 375.56 559.047 377.596 560.566 383.015C561.458 386.195 560.859 389.738 561.17 393C562.005 401.776 562.828 411.359 560.363 420C558.975 424.862 555.956 429.188 554.363 434C551.574 442.428 552.318 454.59 546.277 461.79C542.479 466.317 536.479 468.411 531 470C531.21 462.889 537.905 453.849 530 449C535.53 433.428 532.827 418.291 532.455 402C532.183 390.091 533.785 377.854 534.833 366C535.236 361.444 534.258 356.461 535.314 352C536.24 348.092 539.219 344.768 540.677 341C543.243 334.365 545.03 325.138 550 320M335 340C328.437 347.712 315.663 353.357 306 356C313.918 349.44 325.658 344.362 335 340M249 376L248 377L249 376M208 387C205.641 391.12 201.78 394.196 198.9 398C193.001 405.788 188.8 415.205 188 425C180.945 425 173.961 425.292 167 424L168 417L163 417L164 396C169.308 395.937 172.592 394.996 175 390C185.929 390 197.351 389.624 208 387M80 393C79.4379 396.025 79.0636 398.922 79 402C74.7206 398.737 72.3742 392.34 80 393z"/>
</svg>
